<?xml version="1.0" encoding="UTF-8" standalone="no"?>
<!DOCTYPE svg PUBLIC "-//W3C//DTD SVG 1.1//EN"
 "http://www.w3.org/Graphics/SVG/1.1/DTD/svg11.dtd">
<!-- Generated by graphviz version 2.43.0 (0)
 -->
<!-- Title: erd Pages: 1 -->
<svg width="1355pt" height="711pt"
 viewBox="0.00 0.00 1355.40 711.40" xmlns="http://www.w3.org/2000/svg" xmlns:xlink="http://www.w3.org/1999/xlink">
<g id="graph0" class="graph" transform="scale(1 1) rotate(0) translate(25.2 686.2)">
<title>erd</title>
<polygon fill="white" stroke="transparent" points="-25.2,25.2 -25.2,-686.2 1330.2,-686.2 1330.2,25.2 -25.2,25.2"/>
<g id="clust1" class="cluster">
<title>cluster_legend</title>
<polygon fill="white" stroke="#8fa3b5" stroke-dasharray="5,2" points="8,-324.5 8,-487.5 306,-487.5 306,-324.5 8,-324.5"/>
<text text-anchor="start" x="84" y="-476.5" font-family="Helvetica,sans-Serif" font-weight="bold" font-size="10.00" fill="#5a6672">How to read this diagram</text>
</g>
<!-- categories -->
<g id="node1" class="node">
<title>categories</title>
<polygon fill="#ffffff" stroke="transparent" points="414,-106 414,-185 603,-185 603,-106 414,-106"/>
<polygon fill="#dce6f1" stroke="transparent" points="415.5,-152.5 415.5,-183.5 602.5,-183.5 602.5,-152.5 415.5,-152.5"/>
<text text-anchor="start" x="470" y="-169.1" font-family="Helvetica,sans-Serif" font-weight="bold" font-size="13.00" fill="#1f2933">categories</text>
<text text-anchor="start" x="487.5" y="-160.1" font-family="Helvetica,sans-Serif" font-size="8.00" fill="#1f2933">dimension</text>
<text text-anchor="start" x="420.5" y="-141.1" font-family="Helvetica,sans-Serif" font-weight="bold" font-size="8.00" fill="#2f6f9f">PK</text>
<text text-anchor="start" x="456.5" y="-140.5" font-family="Helvetica,sans-Serif" font-weight="bold" font-size="10.00">category_id</text>
<text text-anchor="start" x="542.5" y="-140.1" font-family="Helvetica,sans-Serif" font-size="8.00" fill="#5a6672">INT</text>
<text text-anchor="start" x="420.5" y="-115.3" font-family="Helvetica,sans-Serif" font-size="14.00"> </text>
<text text-anchor="start" x="456.5" y="-116.5" font-family="Helvetica,sans-Serif" font-size="10.00">category_name</text>
<text text-anchor="start" x="542.5" y="-117.1" font-family="Helvetica,sans-Serif" font-size="8.00" fill="#5a6672">VARCHAR(60)</text>
<polygon fill="none" stroke="#8fa3b5" points="414,-106 414,-185 603,-185 603,-106 414,-106"/>
</g>
<!-- sub_categories -->
<g id="node8" class="node">
<title>sub_categories</title>
<polygon fill="#ffffff" stroke="transparent" points="732.5,-131.5 732.5,-231.5 944.5,-231.5 944.5,-131.5 732.5,-131.5"/>
<polygon fill="#dce6f1" stroke="transparent" points="733.5,-199.5 733.5,-230.5 943.5,-230.5 943.5,-199.5 733.5,-199.5"/>
<text text-anchor="start" x="783.5" y="-216.1" font-family="Helvetica,sans-Serif" font-weight="bold" font-size="13.00" fill="#1f2933">sub_categories</text>
<text text-anchor="start" x="817" y="-207.1" font-family="Helvetica,sans-Serif" font-size="8.00" fill="#1f2933">dimension</text>
<text text-anchor="start" x="738.5" y="-188.1" font-family="Helvetica,sans-Serif" font-weight="bold" font-size="8.00" fill="#2f6f9f">PK</text>
<text text-anchor="start" x="774.5" y="-187.5" font-family="Helvetica,sans-Serif" font-weight="bold" font-size="10.00">sub_category_id</text>
<text text-anchor="start" x="883.5" y="-187.1" font-family="Helvetica,sans-Serif" font-size="8.00" fill="#5a6672">INT</text>
<text text-anchor="start" x="738.5" y="-162.3" font-family="Helvetica,sans-Serif" font-size="14.00"> </text>
<text text-anchor="start" x="774.5" y="-163.5" font-family="Helvetica,sans-Serif" font-size="10.00">sub_category_name</text>
<text text-anchor="start" x="883.5" y="-164.1" font-family="Helvetica,sans-Serif" font-size="8.00" fill="#5a6672">VARCHAR(60)</text>
<text text-anchor="start" x="738.5" y="-142.1" font-family="Helvetica,sans-Serif" font-weight="bold" font-size="8.00" fill="#2f6f9f">FK</text>
<text text-anchor="start" x="774.5" y="-141.5" font-family="Helvetica,sans-Serif" font-weight="bold" font-size="10.00">category_id</text>
<text text-anchor="start" x="883.5" y="-141.1" font-family="Helvetica,sans-Serif" font-size="8.00" fill="#5a6672">INT</text>
<polygon fill="none" stroke="#8fa3b5" points="732.5,-131.5 732.5,-231.5 944.5,-231.5 944.5,-131.5 732.5,-131.5"/>
</g>
<!-- categories&#45;&gt;sub_categories -->
<g id="edge7" class="edge">
<title>categories:e&#45;&gt;sub_categories:w</title>
<path fill="none" stroke="#8fa3b5" stroke-width="1.3" d="M543.3,-141.52C572.01,-141.65 720.93,-142.29 759.42,-142.46"/>
<polygon fill="#8fa3b5" stroke="#8fa3b5" stroke-width="1.3" points="539.38,-146 539.42,-137 541.22,-137.01 541.18,-146.01 539.38,-146"/>
<polyline fill="none" stroke="#8fa3b5" stroke-width="1.3" points="538.5,-141.5 543,-141.52 "/>
<polygon fill="#8fa3b5" stroke="#8fa3b5" stroke-width="1.3" points="759.5,-142.46 768.48,-146.55 764,-142.48 768.5,-142.5 768.5,-142.5 768.5,-142.5 764,-142.48 768.52,-138.45 759.5,-142.46 759.5,-142.46"/>
</g>
<!-- cities -->
<g id="node2" class="node">
<title>cities</title>
<polygon fill="#ffffff" stroke="transparent" points="426,-233.5 426,-333.5 591,-333.5 591,-233.5 426,-233.5"/>
<polygon fill="#dce6f1" stroke="transparent" points="427.5,-301.5 427.5,-332.5 590.5,-332.5 590.5,-301.5 427.5,-301.5"/>
<text text-anchor="start" x="489" y="-318.1" font-family="Helvetica,sans-Serif" font-weight="bold" font-size="13.00" fill="#1f2933">cities</text>
<text text-anchor="start" x="487.5" y="-309.1" font-family="Helvetica,sans-Serif" font-size="8.00" fill="#1f2933">dimension</text>
<text text-anchor="start" x="432.5" y="-290.1" font-family="Helvetica,sans-Serif" font-weight="bold" font-size="8.00" fill="#2f6f9f">PK</text>
<text text-anchor="start" x="468.5" y="-289.5" font-family="Helvetica,sans-Serif" font-weight="bold" font-size="10.00">city_id</text>
<text text-anchor="start" x="530.5" y="-289.1" font-family="Helvetica,sans-Serif" font-size="8.00" fill="#5a6672">INT</text>
<text text-anchor="start" x="432.5" y="-264.3" font-family="Helvetica,sans-Serif" font-size="14.00"> </text>
<text text-anchor="start" x="468.5" y="-265.5" font-family="Helvetica,sans-Serif" font-size="10.00">city_name</text>
<text text-anchor="start" x="530.5" y="-266.1" font-family="Helvetica,sans-Serif" font-size="8.00" fill="#5a6672">VARCHAR(60)</text>
<text text-anchor="start" x="432.5" y="-244.1" font-family="Helvetica,sans-Serif" font-weight="bold" font-size="8.00" fill="#2f6f9f">FK</text>
<text text-anchor="start" x="468.5" y="-243.5" font-family="Helvetica,sans-Serif" font-weight="bold" font-size="10.00">state_id</text>
<text text-anchor="start" x="530.5" y="-243.1" font-family="Helvetica,sans-Serif" font-size="8.00" fill="#5a6672">INT</text>
<polygon fill="none" stroke="#8fa3b5" points="426,-233.5 426,-333.5 591,-333.5 591,-233.5 426,-233.5"/>
</g>
<!-- customers -->
<g id="node3" class="node">
<title>customers</title>
<polygon fill="#ffffff" stroke="transparent" points="740,-279.5 740,-379.5 937,-379.5 937,-279.5 740,-279.5"/>
<polygon fill="#dce6f1" stroke="transparent" points="741.5,-347.5 741.5,-378.5 936.5,-378.5 936.5,-347.5 741.5,-347.5"/>
<text text-anchor="start" x="801" y="-364.1" font-family="Helvetica,sans-Serif" font-weight="bold" font-size="13.00" fill="#1f2933">customers</text>
<text text-anchor="start" x="817.5" y="-355.1" font-family="Helvetica,sans-Serif" font-size="8.00" fill="#1f2933">dimension</text>
<text text-anchor="start" x="746.5" y="-336.1" font-family="Helvetica,sans-Serif" font-weight="bold" font-size="8.00" fill="#2f6f9f">PK</text>
<text text-anchor="start" x="782.5" y="-335.5" font-family="Helvetica,sans-Serif" font-weight="bold" font-size="10.00">customer_id</text>
<text text-anchor="start" x="871.5" y="-335.1" font-family="Helvetica,sans-Serif" font-size="8.00" fill="#5a6672">INT</text>
<text text-anchor="start" x="746.5" y="-310.3" font-family="Helvetica,sans-Serif" font-size="14.00"> </text>
<text text-anchor="start" x="782.5" y="-311.5" font-family="Helvetica,sans-Serif" font-size="10.00">customer_name</text>
<text text-anchor="start" x="871.5" y="-312.1" font-family="Helvetica,sans-Serif" font-size="8.00" fill="#5a6672">VARCHAR(120)</text>
<text text-anchor="start" x="746.5" y="-290.1" font-family="Helvetica,sans-Serif" font-weight="bold" font-size="8.00" fill="#2f6f9f">FK</text>
<text text-anchor="start" x="782.5" y="-289.5" font-family="Helvetica,sans-Serif" font-weight="bold" font-size="10.00">city_id</text>
<text text-anchor="start" x="871.5" y="-289.1" font-family="Helvetica,sans-Serif" font-size="8.00" fill="#5a6672">INT</text>
<polygon fill="none" stroke="#8fa3b5" points="740,-279.5 740,-379.5 937,-379.5 937,-279.5 740,-279.5"/>
</g>
<!-- cities&#45;&gt;customers -->
<g id="edge2" class="edge">
<title>cities:e&#45;&gt;customers:w</title>
<path fill="none" stroke="#8fa3b5" stroke-width="1.3" d="M531.27,-291.48C561.51,-291.36 726.58,-290.7 767.38,-290.54"/>
<polygon fill="#8fa3b5" stroke="#8fa3b5" stroke-width="1.3" points="527.42,-296 527.38,-287 529.18,-286.99 529.22,-295.99 527.42,-296"/>
<polyline fill="none" stroke="#8fa3b5" stroke-width="1.3" points="526.5,-291.5 531,-291.48 "/>
<polygon fill="#8fa3b5" stroke="#8fa3b5" stroke-width="1.3" points="767.5,-290.54 776.52,-294.55 772,-290.52 776.5,-290.5 776.5,-290.5 776.5,-290.5 772,-290.52 776.48,-286.45 767.5,-290.54 767.5,-290.54"/>
</g>
<!-- sales -->
<g id="node6" class="node">
<title>sales</title>
<polygon fill="#ffffff" stroke="transparent" points="1074,-145.5 1074,-383.5 1297,-383.5 1297,-145.5 1074,-145.5"/>
<polygon fill="#2f6f9f" stroke="transparent" points="1075.5,-351.5 1075.5,-382.5 1296.5,-382.5 1296.5,-351.5 1075.5,-351.5"/>
<text text-anchor="start" x="1167" y="-368.1" font-family="Helvetica,sans-Serif" font-weight="bold" font-size="13.00" fill="#ffffff">sales</text>
<text text-anchor="start" x="1162.5" y="-359.1" font-family="Helvetica,sans-Serif" font-size="8.00" fill="#ffffff">FACT TABLE</text>
<text text-anchor="start" x="1080.5" y="-340.1" font-family="Helvetica,sans-Serif" font-weight="bold" font-size="8.00" fill="#2f6f9f">PK</text>
<text text-anchor="start" x="1116.5" y="-339.5" font-family="Helvetica,sans-Serif" font-weight="bold" font-size="10.00">sale_id</text>
<text text-anchor="start" x="1229.5" y="-339.1" font-family="Helvetica,sans-Serif" font-size="8.00" fill="#5a6672">INT</text>
<text text-anchor="start" x="1080.5" y="-314.3" font-family="Helvetica,sans-Serif" font-size="14.00"> </text>
<text text-anchor="start" x="1116.5" y="-315.5" font-family="Helvetica,sans-Serif" font-size="10.00">order_ref</text>
<text text-anchor="start" x="1229.5" y="-316.1" font-family="Helvetica,sans-Serif" font-size="8.00" fill="#5a6672">VARCHAR(20)</text>
<text text-anchor="start" x="1080.5" y="-294.1" font-family="Helvetica,sans-Serif" font-weight="bold" font-size="8.00" fill="#2f6f9f">FK</text>
<text text-anchor="start" x="1116.5" y="-293.5" font-family="Helvetica,sans-Serif" font-weight="bold" font-size="10.00">order_date</text>
<text text-anchor="start" x="1229.5" y="-293.1" font-family="Helvetica,sans-Serif" font-size="8.00" fill="#5a6672">DATE</text>
<text text-anchor="start" x="1080.5" y="-273.1" font-family="Helvetica,sans-Serif" font-weight="bold" font-size="8.00" fill="#2f6f9f">FK</text>
<text text-anchor="start" x="1116.5" y="-272.5" font-family="Helvetica,sans-Serif" font-weight="bold" font-size="10.00">customer_id</text>
<text text-anchor="start" x="1229.5" y="-272.1" font-family="Helvetica,sans-Serif" font-size="8.00" fill="#5a6672">INT</text>
<text text-anchor="start" x="1080.5" y="-252.1" font-family="Helvetica,sans-Serif" font-weight="bold" font-size="8.00" fill="#2f6f9f">FK</text>
<text text-anchor="start" x="1116.5" y="-251.5" font-family="Helvetica,sans-Serif" font-weight="bold" font-size="10.00">sub_category_id</text>
<text text-anchor="start" x="1229.5" y="-251.1" font-family="Helvetica,sans-Serif" font-size="8.00" fill="#5a6672">INT</text>
<text text-anchor="start" x="1080.5" y="-231.1" font-family="Helvetica,sans-Serif" font-weight="bold" font-size="8.00" fill="#2f6f9f">FK</text>
<text text-anchor="start" x="1116.5" y="-230.5" font-family="Helvetica,sans-Serif" font-weight="bold" font-size="10.00">payment_mode_id</text>
<text text-anchor="start" x="1229.5" y="-230.1" font-family="Helvetica,sans-Serif" font-size="8.00" fill="#5a6672">INT</text>
<text text-anchor="start" x="1080.5" y="-205.3" font-family="Helvetica,sans-Serif" font-size="14.00"> </text>
<text text-anchor="start" x="1116.5" y="-206.5" font-family="Helvetica,sans-Serif" font-size="10.00">quantity</text>
<text text-anchor="start" x="1229.5" y="-207.1" font-family="Helvetica,sans-Serif" font-size="8.00" fill="#5a6672">INT</text>
<text text-anchor="start" x="1080.5" y="-180.3" font-family="Helvetica,sans-Serif" font-size="14.00"> </text>
<text text-anchor="start" x="1116.5" y="-181.5" font-family="Helvetica,sans-Serif" font-size="10.00">amount</text>
<text text-anchor="start" x="1229.5" y="-182.1" font-family="Helvetica,sans-Serif" font-size="8.00" fill="#5a6672">DECIMAL(12, 2)</text>
<text text-anchor="start" x="1080.5" y="-155.3" font-family="Helvetica,sans-Serif" font-size="14.00"> </text>
<text text-anchor="start" x="1116.5" y="-156.5" font-family="Helvetica,sans-Serif" font-size="10.00">profit</text>
<text text-anchor="start" x="1229.5" y="-157.1" font-family="Helvetica,sans-Serif" font-size="8.00" fill="#5a6672">DECIMAL(12, 2)</text>
<polygon fill="none" stroke="#8fa3b5" points="1074,-145.5 1074,-383.5 1297,-383.5 1297,-145.5 1074,-145.5"/>
</g>
<!-- customers&#45;&gt;sales -->
<g id="edge3" class="edge">
<title>customers:e&#45;&gt;sales:w</title>
<path fill="none" stroke="#8fa3b5" stroke-width="1.3" d="M872.14,-336.3C901.53,-328.68 1061.98,-287.08 1101.64,-276.8"/>
<polygon fill="#8fa3b5" stroke="#8fa3b5" stroke-width="1.3" points="869.5,-341.63 867.24,-332.92 868.98,-332.47 871.24,-341.18 869.5,-341.63"/>
<polyline fill="none" stroke="#8fa3b5" stroke-width="1.3" points="867.5,-337.5 871.86,-336.37 "/>
<polygon fill="#8fa3b5" stroke="#8fa3b5" stroke-width="1.3" points="1101.79,-276.76 1111.52,-278.42 1106.14,-275.63 1110.5,-274.5 1110.5,-274.5 1110.5,-274.5 1106.14,-275.63 1109.48,-270.58 1101.79,-276.76 1101.79,-276.76"/>
</g>
<!-- dates -->
<g id="node4" class="node">
<title>dates</title>
<polygon fill="#ffffff" stroke="transparent" points="733.5,-428 733.5,-657 943.5,-657 943.5,-428 733.5,-428"/>
<polygon fill="#dce6f1" stroke="transparent" points="734.5,-624.5 734.5,-655.5 942.5,-655.5 942.5,-624.5 734.5,-624.5"/>
<text text-anchor="start" x="818" y="-641.1" font-family="Helvetica,sans-Serif" font-weight="bold" font-size="13.00" fill="#1f2933">dates</text>
<text text-anchor="start" x="817" y="-632.1" font-family="Helvetica,sans-Serif" font-size="8.00" fill="#1f2933">dimension</text>
<text text-anchor="start" x="739.5" y="-613.1" font-family="Helvetica,sans-Serif" font-weight="bold" font-size="8.00" fill="#2f6f9f">PK</text>
<text text-anchor="start" x="775.5" y="-612.5" font-family="Helvetica,sans-Serif" font-weight="bold" font-size="10.00">order_date</text>
<text text-anchor="start" x="882.5" y="-612.1" font-family="Helvetica,sans-Serif" font-size="8.00" fill="#5a6672">DATE</text>
<text text-anchor="start" x="739.5" y="-587.3" font-family="Helvetica,sans-Serif" font-size="14.00"> </text>
<text text-anchor="start" x="775.5" y="-588.5" font-family="Helvetica,sans-Serif" font-size="10.00">year_number</text>
<text text-anchor="start" x="882.5" y="-589.1" font-family="Helvetica,sans-Serif" font-size="8.00" fill="#5a6672">SMALLINT</text>
<text text-anchor="start" x="739.5" y="-562.3" font-family="Helvetica,sans-Serif" font-size="14.00"> </text>
<text text-anchor="start" x="775.5" y="-563.5" font-family="Helvetica,sans-Serif" font-size="10.00">quarter_number</text>
<text text-anchor="start" x="882.5" y="-564.1" font-family="Helvetica,sans-Serif" font-size="8.00" fill="#5a6672">TINYINT</text>
<text text-anchor="start" x="739.5" y="-537.3" font-family="Helvetica,sans-Serif" font-size="14.00"> </text>
<text text-anchor="start" x="775.5" y="-538.5" font-family="Helvetica,sans-Serif" font-size="10.00">month_number</text>
<text text-anchor="start" x="882.5" y="-539.1" font-family="Helvetica,sans-Serif" font-size="8.00" fill="#5a6672">TINYINT</text>
<text text-anchor="start" x="739.5" y="-512.3" font-family="Helvetica,sans-Serif" font-size="14.00"> </text>
<text text-anchor="start" x="775.5" y="-513.5" font-family="Helvetica,sans-Serif" font-size="10.00">month_name</text>
<text text-anchor="start" x="882.5" y="-514.1" font-family="Helvetica,sans-Serif" font-size="8.00" fill="#5a6672">VARCHAR(12)</text>
<text text-anchor="start" x="739.5" y="-487.3" font-family="Helvetica,sans-Serif" font-size="14.00"> </text>
<text text-anchor="start" x="775.5" y="-488.5" font-family="Helvetica,sans-Serif" font-size="10.00">year_month</text>
<text text-anchor="start" x="882.5" y="-489.1" font-family="Helvetica,sans-Serif" font-size="8.00" fill="#5a6672">CHAR(7)</text>
<text text-anchor="start" x="739.5" y="-462.3" font-family="Helvetica,sans-Serif" font-size="14.00"> </text>
<text text-anchor="start" x="775.5" y="-463.5" font-family="Helvetica,sans-Serif" font-size="10.00">is_complete_year</text>
<text text-anchor="start" x="882.5" y="-464.1" font-family="Helvetica,sans-Serif" font-size="8.00" fill="#5a6672">TINYINT</text>
<text text-anchor="start" x="739.5" y="-437.3" font-family="Helvetica,sans-Serif" font-size="14.00"> </text>
<text text-anchor="start" x="775.5" y="-438.5" font-family="Helvetica,sans-Serif" font-size="10.00">is_complete_month</text>
<text text-anchor="start" x="882.5" y="-439.1" font-family="Helvetica,sans-Serif" font-size="8.00" fill="#5a6672">TINYINT</text>
<polygon fill="none" stroke="#8fa3b5" points="733.5,-428 733.5,-657 943.5,-657 943.5,-428 733.5,-428"/>
</g>
<!-- dates&#45;&gt;sales -->
<g id="edge4" class="edge">
<title>dates:e&#45;&gt;sales:w</title>
<path fill="none" stroke="#8fa3b5" stroke-width="1.3" d="M881.43,-610.47C905.67,-577.15 1072.68,-347.51 1105.07,-302.97"/>
<polygon fill="#8fa3b5" stroke="#8fa3b5" stroke-width="1.3" points="882.67,-616.42 875.39,-611.13 876.45,-609.67 883.73,-614.96 882.67,-616.42"/>
<polyline fill="none" stroke="#8fa3b5" stroke-width="1.3" points="878.5,-614.5 881.15,-610.86 "/>
<polygon fill="#8fa3b5" stroke="#8fa3b5" stroke-width="1.3" points="1105.21,-302.78 1113.78,-297.88 1107.85,-299.14 1110.5,-295.5 1110.5,-295.5 1110.5,-295.5 1107.85,-299.14 1107.22,-293.12 1105.21,-302.78 1105.21,-302.78"/>
</g>
<!-- payment_modes -->
<g id="node5" class="node">
<title>payment_modes</title>
<polygon fill="#ffffff" stroke="transparent" points="727,-4 727,-83 950,-83 950,-4 727,-4"/>
<polygon fill="#dce6f1" stroke="transparent" points="728.5,-50.5 728.5,-81.5 949.5,-81.5 949.5,-50.5 728.5,-50.5"/>
<text text-anchor="start" x="780" y="-67.1" font-family="Helvetica,sans-Serif" font-weight="bold" font-size="13.00" fill="#1f2933">payment_modes</text>
<text text-anchor="start" x="817.5" y="-58.1" font-family="Helvetica,sans-Serif" font-size="8.00" fill="#1f2933">dimension</text>
<text text-anchor="start" x="733.5" y="-39.1" font-family="Helvetica,sans-Serif" font-weight="bold" font-size="8.00" fill="#2f6f9f">PK</text>
<text text-anchor="start" x="769.5" y="-38.5" font-family="Helvetica,sans-Serif" font-weight="bold" font-size="10.00">payment_mode_id</text>
<text text-anchor="start" x="889.5" y="-38.1" font-family="Helvetica,sans-Serif" font-size="8.00" fill="#5a6672">INT</text>
<text text-anchor="start" x="733.5" y="-13.3" font-family="Helvetica,sans-Serif" font-size="14.00"> </text>
<text text-anchor="start" x="769.5" y="-14.5" font-family="Helvetica,sans-Serif" font-size="10.00">payment_mode_name</text>
<text text-anchor="start" x="889.5" y="-15.1" font-family="Helvetica,sans-Serif" font-size="8.00" fill="#5a6672">VARCHAR(40)</text>
<polygon fill="none" stroke="#8fa3b5" points="727,-4 727,-83 950,-83 950,-4 727,-4"/>
</g>
<!-- payment_modes&#45;&gt;sales -->
<g id="edge5" class="edge">
<title>payment_modes:e&#45;&gt;sales:w</title>
<path fill="none" stroke="#8fa3b5" stroke-width="1.3" d="M889.03,-42.52C914.42,-64.18 1068.92,-196.02 1103.6,-225.61"/>
<polygon fill="#8fa3b5" stroke="#8fa3b5" stroke-width="1.3" points="883.26,-43.51 889.11,-36.66 890.47,-37.83 884.63,-44.68 883.26,-43.51"/>
<polyline fill="none" stroke="#8fa3b5" stroke-width="1.3" points="885.5,-39.5 888.92,-42.42 "/>
<polygon fill="#8fa3b5" stroke="#8fa3b5" stroke-width="1.3" points="1103.65,-225.66 1107.87,-234.58 1107.08,-228.58 1110.5,-231.5 1110.5,-231.5 1110.5,-231.5 1107.08,-228.58 1113.13,-228.42 1103.65,-225.66 1103.65,-225.66"/>
</g>
<!-- states -->
<g id="node7" class="node">
<title>states</title>
<polygon fill="#ffffff" stroke="transparent" points="71.5,-209 71.5,-288 242.5,-288 242.5,-209 71.5,-209"/>
<polygon fill="#dce6f1" stroke="transparent" points="73,-255.5 73,-286.5 242,-286.5 242,-255.5 73,-255.5"/>
<text text-anchor="start" x="134.5" y="-272.1" font-family="Helvetica,sans-Serif" font-weight="bold" font-size="13.00" fill="#1f2933">states</text>
<text text-anchor="start" x="136" y="-263.1" font-family="Helvetica,sans-Serif" font-size="8.00" fill="#1f2933">dimension</text>
<text text-anchor="start" x="78" y="-244.1" font-family="Helvetica,sans-Serif" font-weight="bold" font-size="8.00" fill="#2f6f9f">PK</text>
<text text-anchor="start" x="114" y="-243.5" font-family="Helvetica,sans-Serif" font-weight="bold" font-size="10.00">state_id</text>
<text text-anchor="start" x="182" y="-243.1" font-family="Helvetica,sans-Serif" font-size="8.00" fill="#5a6672">INT</text>
<text text-anchor="start" x="78" y="-218.3" font-family="Helvetica,sans-Serif" font-size="14.00"> </text>
<text text-anchor="start" x="114" y="-219.5" font-family="Helvetica,sans-Serif" font-size="10.00">state_name</text>
<text text-anchor="start" x="182" y="-220.1" font-family="Helvetica,sans-Serif" font-size="8.00" fill="#5a6672">VARCHAR(60)</text>
<polygon fill="none" stroke="#8fa3b5" points="71.5,-209 71.5,-288 242.5,-288 242.5,-209 71.5,-209"/>
</g>
<!-- states&#45;&gt;cities -->
<g id="edge1" class="edge">
<title>states:e&#45;&gt;cities:w</title>
<path fill="none" stroke="#8fa3b5" stroke-width="1.3" d="M182.94,-244.5C216.29,-244.5 408.63,-244.5 453.26,-244.5"/>
<polygon fill="#8fa3b5" stroke="#8fa3b5" stroke-width="1.3" points="178.9,-249 178.9,-240 180.7,-240 180.7,-249 178.9,-249"/>
<polyline fill="none" stroke="#8fa3b5" stroke-width="1.3" points="178,-244.5 182.5,-244.5 "/>
<polygon fill="#8fa3b5" stroke="#8fa3b5" stroke-width="1.3" points="453.5,-244.5 462.5,-248.55 458,-244.5 462.5,-244.5 462.5,-244.5 462.5,-244.5 458,-244.5 462.5,-240.45 453.5,-244.5 453.5,-244.5"/>
</g>
<!-- sub_categories&#45;&gt;sales -->
<g id="edge6" class="edge">
<title>sub_categories:e&#45;&gt;sales:w</title>
<path fill="none" stroke="#8fa3b5" stroke-width="1.3" d="M883.91,-190.7C911.73,-198.29 1063.02,-239.55 1101.56,-250.06"/>
<polygon fill="#8fa3b5" stroke="#8fa3b5" stroke-width="1.3" points="879.18,-194.08 881.55,-185.4 883.29,-185.87 880.92,-194.55 879.18,-194.08"/>
<polyline fill="none" stroke="#8fa3b5" stroke-width="1.3" points="879.5,-189.5 883.84,-190.68 "/>
<polygon fill="#8fa3b5" stroke="#8fa3b5" stroke-width="1.3" points="1101.82,-250.13 1109.43,-256.41 1106.16,-251.32 1110.5,-252.5 1110.5,-252.5 1110.5,-252.5 1106.16,-251.32 1111.57,-248.59 1101.82,-250.13 1101.82,-250.13"/>
</g>
<!-- legend -->
<g id="node9" class="node">
<title>legend</title>
<text text-anchor="start" x="29" y="-445.3" font-family="Helvetica,sans-Serif" font-weight="bold" font-size="9.00" fill="#2f6f9f">PK</text>
<text text-anchor="start" x="51" y="-444.3" font-family="Helvetica,sans-Serif" font-size="9.00">primary key — uniquely identifies a row</text>
<text text-anchor="start" x="29" y="-427.3" font-family="Helvetica,sans-Serif" font-weight="bold" font-size="9.00" fill="#2f6f9f">FK</text>
<text text-anchor="start" x="51" y="-426.3" font-family="Helvetica,sans-Serif" font-size="9.00">foreign key — points at another table’s primary key</text>
<text text-anchor="start" x="29" y="-409.3" font-family="Helvetica,sans-Serif" font-weight="bold" font-size="9.00">―|</text>
<text text-anchor="start" x="51" y="-408.3" font-family="Helvetica,sans-Serif" font-size="9.00">the “one” side of a relationship</text>
<text text-anchor="start" x="29" y="-391.3" font-family="Helvetica,sans-Serif" font-weight="bold" font-size="9.00">›—</text>
<text text-anchor="start" x="51" y="-390.3" font-family="Helvetica,sans-Serif" font-size="9.00">crow’s foot — the “many” side</text>
<polygon fill="#2f6f9f" stroke="transparent" points="26,-361.5 26,-382.5 46,-382.5 46,-361.5 26,-361.5"/>
<text text-anchor="start" x="29" y="-368.3" font-family="Helvetica,sans-Serif" font-size="14.00"> </text>
<text text-anchor="start" x="51" y="-369.8" font-family="Helvetica,sans-Serif" font-size="9.00">fact table (holds the measures)</text>
<polygon fill="#dce6f1" stroke="transparent" points="26,-338.5 26,-359.5 46,-359.5 46,-338.5 26,-338.5"/>
<text text-anchor="start" x="29" y="-345.3" font-family="Helvetica,sans-Serif" font-size="14.00"> </text>
<text text-anchor="start" x="51" y="-346.8" font-family="Helvetica,sans-Serif" font-size="9.00">dimension (describes and labels)</text>
</g>
</g>
</svg>
